<svg fill="none" xmlns="http://www.w3.org/2000/svg" viewBox="0 0 24 25"><path fill-rule="evenodd" clip-rule="evenodd" d="M19.792 5.768c.86.23 1.54.911 1.771 1.771.424 1.566.437 4.814.437 4.814s0 3.26-.424 4.814a2.519 2.519 0 0 1-1.771 1.772c-1.553.423-7.805.423-7.805.423s-6.252 0-7.805-.423a2.519 2.519 0 0 1-1.771-1.772C2 15.601 2 12.353 2 12.353s0-3.248.41-4.8c.232-.86.912-1.541 1.772-1.772 1.554-.424 7.805-.437 7.805-.437s6.252 0 7.805.424Zm-4.608 6.585-5.187 3.004V9.35l5.187 3.004Z" fill="currentColor"/></svg>