<svg fill="none" xmlns="http://www.w3.org/2000/svg" viewBox="0 0 150 100"><path fill-rule="evenodd" clip-rule="evenodd" d="M88.89 59.807c-6.705 4.942-16.424 7.579-24.792 7.579-11.732 0-22.295-4.34-30.286-11.557-.628-.568-.065-1.341.688-.9 8.624 5.018 19.287 8.037 30.302 8.037 7.428 0 15.6-1.537 23.114-4.726 1.135-.483 2.084.743.974 1.567Z" fill="currentColor"/><path fill-rule="evenodd" clip-rule="evenodd" d="M91.678 56.617c-.854-1.095-5.666-.517-7.826-.26-.658.08-.758-.493-.165-.905 3.832-2.697 10.12-1.919 10.853-1.014.734.909-.19 7.212-3.792 10.22-.552.463-1.08.216-.833-.396.808-2.02 2.621-6.545 1.763-7.645ZM84.003 36.411V33.79c0-.396.301-.663.663-.663h11.738c.377 0 .678.272.678.663v2.245c-.005.377-.321.87-.884 1.648l-6.082 8.684c2.26-.055 4.645.281 6.695 1.437.462.26.587.643.623 1.02v2.797c0 .381-.422.828-.864.597-3.612-1.893-8.408-2.099-12.401.02-.407.222-.834-.22-.834-.602v-2.657c0-.427.005-1.155.432-1.803l7.047-10.106H84.68c-.377 0-.678-.266-.678-.658ZM41.185 52.77h-3.57a.675.675 0 0 1-.639-.608V33.835c0-.367.307-.658.688-.658h3.33a.673.673 0 0 1 .648.612v2.396h.066c.869-2.315 2.5-3.395 4.7-3.395 2.236 0 3.632 1.08 4.637 3.395.864-2.315 2.827-3.395 4.932-3.395 1.497 0 3.134.618 4.134 2.004 1.13 1.542.899 3.782.899 5.746l-.005 11.567a.674.674 0 0 1-.689.663H56.75a.679.679 0 0 1-.643-.663v-9.714c0-.773.07-2.702-.1-3.435-.266-1.23-1.065-1.577-2.1-1.577-.863 0-1.767.577-2.134 1.501-.367.925-.332 2.471-.332 3.511v9.714a.675.675 0 0 1-.688.663h-3.566a.675.675 0 0 1-.643-.663l-.005-9.714c0-2.044.337-5.053-2.2-5.053-2.566 0-2.466 2.934-2.466 5.053v9.714a.674.674 0 0 1-.688.663Zm66.003-19.98c5.298 0 8.166 4.55 8.166 10.337 0 5.59-3.169 10.025-8.167 10.025-5.203 0-8.036-4.55-8.036-10.221 0-5.706 2.868-10.141 8.037-10.141Zm.03 3.742c-2.632 0-2.798 3.586-2.798 5.82 0 2.241-.035 7.023 2.768 7.023 2.767 0 2.898-3.858 2.898-6.208 0-1.547-.066-3.396-.533-4.862-.402-1.276-1.2-1.773-2.335-1.773Zm15.007 16.238h-3.556c-.356-.025-.643-.311-.643-.663l-.005-18.333c.03-.336.327-.597.688-.597h3.31a.683.683 0 0 1 .638.512v2.803h.065c1-2.507 2.401-3.702 4.867-3.702 1.603 0 3.165.578 4.169 2.16.934 1.466.934 3.932.934 5.705v11.537c-.04.322-.336.578-.688.578h-3.581c-.326-.025-.598-.266-.633-.578v-9.955c0-2.004.231-4.937-2.235-4.937-.869 0-1.667.583-2.064 1.467-.502 1.12-.568 2.235-.568 3.47v9.87a.686.686 0 0 1-.698.663Zm-47.58-8.755c0 1.392.036 2.552-.667 3.787-.568 1.005-1.472 1.623-2.471 1.623-1.371 0-2.175-1.045-2.175-2.587 0-3.044 2.727-3.596 5.314-3.596v.774Zm3.602 8.705a.746.746 0 0 1-.844.085c-1.185-.984-1.401-1.441-2.049-2.38-1.959 1.998-3.35 2.596-5.886 2.596-3.009 0-5.344-1.853-5.344-5.565 0-2.898 1.567-4.872 3.807-5.836 1.939-.854 4.646-1.005 6.715-1.24v-.463c0-.849.065-1.853-.437-2.587-.432-.658-1.266-.929-2.004-.929-1.361 0-2.572.698-2.868 2.145-.06.321-.296.638-.623.653l-3.46-.372c-.292-.065-.618-.301-.533-.748.794-4.2 4.59-5.465 7.986-5.465 1.738 0 4.008.462 5.38 1.778 1.737 1.622 1.572 3.787 1.572 6.143V46.1c0 1.672.693 2.406 1.346 3.31.226.321.276.708-.015.949-.729.608-2.024 1.738-2.738 2.37l-.005-.01M27.83 44.017c0 1.39.035 2.551-.668 3.786-.567 1.005-1.466 1.623-2.471 1.623-1.371 0-2.17-1.045-2.17-2.587 0-3.044 2.727-3.596 5.31-3.596v.774Zm3.601 8.704a.746.746 0 0 1-.843.085c-1.186-.984-1.397-1.441-2.05-2.38-1.959 1.998-3.345 2.596-5.886 2.596-3.004 0-5.344-1.853-5.344-5.565 0-2.898 1.572-4.872 3.807-5.836 1.939-.854 4.646-1.005 6.715-1.24v-.463c0-.849.065-1.853-.432-2.587-.437-.658-1.27-.929-2.004-.929-1.361 0-2.576.698-2.873 2.145-.06.321-.296.638-.618.653l-3.465-.372c-.291-.065-.613-.301-.533-.748.799-4.2 4.591-5.465 7.986-5.465 1.738 0 4.008.462 5.38 1.778 1.737 1.622 1.572 3.787 1.572 6.143V46.1c0 1.672.693 2.406 1.346 3.31.23.321.281.708-.01.949-.729.608-2.024 1.738-2.738 2.37l-.01-.01Z" fill="currentColor"/></svg>