<svg fill="none" xmlns="http://www.w3.org/2000/svg" viewBox="0 0 150 100"><path d="m69.69 61.141.14.02c1.04.14 2.061.328 2.843.678.724.32 1.149.724 1.536 1.446.59 1.094.628 2.627.096 3.787-.398.863-1.272 1.587-2.07 1.97-.828.402-1.644.593-2.58.7-1.636.18-3.404-.16-4.877-.871-.872-.426-1.936-1.159-2.472-2.103-.395-.692-.383-1.591.098-2.249.765-1.047 2.405-1.278 3.64-1.234.94.036 2.636.327 3.53.645.248.09 1.161.446 1.32.609.113.113.186.278.135.431-.204.625-1.722.954-2.16 1.02-1.174.18-1.782-.264-3.117-.791-.33-.13-.772-.274-1.11-.305-.605-.057-1.336.112-1.452.773-.057.341.342.66.647.794a4.883 4.883 0 0 0 2.002.427c2.08.034 4.418-.308 6.12-1.514.233-.166.462-.41.464-.716.008-.62-1.078-.999-1.078-.999-1.147-.478-3.265-.71-4.356-.8-1.145-.1-2.947-.248-3.38-.311-.445-.064-.928-.154-1.314-.327-.388-.174-.767-.566-.88-1-.199-.78.056-1.74.49-2.364 1.137-1.634 3.8-2.255 5.79-2.502 1.926-.24 5.04-.237 6.932.768.292.157.44.302.38.614-.123.587-.564.965-1.098 1.13-.56.178-1.719.248-2.228.28-2.28.128-5.037.06-7.209.653-.17.049-.464.128-.56.235-.34.369.631.474.84.516a.81.81 0 0 0 .138.024l4.8.566Zm-13.567-10.17s.37-.556.682-.978c.566-.769 1.59-1.835 2.361-2.495.236-.201.515-.43.515-.43s-.436.046-.682.096c-.585.114-1.444.684-1.872 1.053-.708.605-1.486 1.59-1.134 2.465.051.123.13.29.13.29Zm3.933 1.053a7.47 7.47 0 0 0 3.14-.94c.956-.534 2.362-1.577 2.216-2.804a1.032 1.032 0 0 0-.632-.836c-.427-.185-.649-.155-1.194.007a3.582 3.582 0 0 0-.947.4c-1.097.637-2.651 2-3.495 3.088-.195.257-.392.544-.547.74-.097.122-.173.233-.163.263.033.123 1.186.112 1.622.082Zm-2.846 2.09c-.115.122-.237.416-.363.63-.068.113-.193.26-.276.319-.29.214-.537.223-.818-.024-.394-.348-.622-.887-.638-1.41-.008-.23.03-.482-.012-.675-.072-.326-.398-.661-.573-.972-.207-.367-.373-1.006-.394-1.419-.07-1.287.607-2.472 1.489-3.407.887-.946 2.048-1.731 3.31-2.266 1.194-.503 2.943-.846 4.254-.392.427.146 1.021.51 1.32.89.063.079.115.164.18.206.058.037.21.052.332.074.418.073 1.02.39 1.266.6.494.426.764.833.89 1.424.25 1.19-.434 2.495-1.215 3.289-1.335 1.367-2.655 2.328-4.363 2.997-.75.293-1.92.567-2.771.49-.265-.022-.537-.091-.794-.108-.131-.012-.612-.136-.663-.17-.064-.05-.146-.092-.16-.075Zm1.526 2.638c.053.008.133.031.202.058.599.228.845.782.993 1.391.342 1.414.488 4.543.545 5.768.041.919.065 1.823.103 2.732.033.769.094 1.792-.066 2.513-.059.259-.232.56-.48.715-.285.182-.932.196-1.288.122-.877-.181-1.162-.745-1.287-1.612-.298-2.07-.155-6.133.021-7.847.058-.566.272-2.38.567-3.14.101-.257.316-.774.69-.7Zm-26.684 3.443s-1.305.093-2.204.193c-1.143.123-3.29.493-4.53.936-.372.133-1.128.45-1.193.832-.07.396.177.706.45 1.027.158.186 1.054 1.047 1.305 1.257 1.052.878 3.186 2.233 4.758 2.891.54.224 1.433.544 1.433.544s-.066-2.544-.054-5.05c.007-1.321.035-2.63.035-2.63Zm23.937 1.013c.075.683-.1 1.975-.131 2.145-.056.393-.352 1.3-.401 1.41-.24.55-.475 1.001-.725 1.451-.428.77-1.446 1.992-2.05 2.515-2.247 1.942-5.726 3.048-8.71 3.412-2.025.245-4.352.209-6.498-.188-.738-.134-1.837-.388-1.837-.388s.004.44-.032.749a3.107 3.107 0 0 1-.182.632c-.156.322-.412.489-.785.56-.45.084-.926.111-1.341-.066-.683-.287-.927-.925-1.046-1.661a33.726 33.726 0 0 1-.197-1.612s-.51-.242-.936-.454a24.2 24.2 0 0 1-3.633-2.226 45.653 45.653 0 0 1-1.878-1.576c-.8-.759-1.52-1.514-2.067-2.484-.426-.757-.548-1.43-.225-2.231.447-1.119 2.05-1.961 3.147-2.44.806-.356 3.31-1.174 4.351-1.326.492-.07 1.254-.207 1.3-.237a.296.296 0 0 0 .047-.043c.024-.034.064-1.141.057-1.546-.01-.398.294-3.014.392-3.567.051-.299.278-1.45.509-1.752.151-.204.419-.188.637-.054 1.193.742 1.556 3.316 1.644 4.625.053.798.08 1.998.08 1.998s1.369-.04 2.21-.017c.82.02 1.721.148 2.57.284 1.088.174 3.207.636 4.423 1.253 1 .507 1.938 1.362 2.241 2.267.282.83.24 1.404-.19 2.152-.482.845-1.396 1.474-2.322 1.526-.276.016-1.314-.122-1.633-.369-.125-.099-.118-.276-.028-.397.034-.042.519-.3.805-.45.136-.073.261-.162.375-.265.237-.21.452-.44.428-.71-.033-.35-.404-.567-.758-.706-1.66-.66-4.974-1.207-6.576-1.302-.627-.037-1.519-.068-1.519-.068l.189 8.844s.737.14 1.318.234c.334.05 1.746.178 2.121.187 2.858.076 6.048-.18 8.67-1.418 1.152-.542 2.208-1.216 3.008-2.13 1.054-1.208 1.606-2.862 1.46-4.59-.16-1.886-1.488-4.125-2.548-5.489-2.802-3.603-7.603-6.566-11.828-8.304-4.313-1.772-8.576-2.792-13.154-2.963-1.18-.044-3.753.016-5.053.376-.186.052-.373.115-.546.154a1.52 1.52 0 0 0-.41.17.644.644 0 0 0-.064.064s.08.044.156.077c.138.06.718.096 1.018.15.269.051.548.192.659.389.105.187.118.334-.008.49-.294.359-1.403.298-1.892.22-.508-.08-1.14-.235-1.255-.677-.135-.52.112-1.031.38-1.503.536-.943 1.305-1.434 2.43-1.742 1.6-.44 3.618-.747 5.128-.805 3.417-.129 6.651.469 9.962 1.474a47.594 47.594 0 0 1 6.192 2.409c1.304.628 3.357 1.784 4.51 2.539.364.24 2.493 1.804 2.824 2.08.69.563 1.592 1.374 2.246 2.022 1.264 1.253 2.836 3.173 3.6 4.697.184.365.326.724.563 1.147.082.145.43 1.012.489 1.262.057.248.141.612.153.627.017.133.179.877.166 1.165Zm42.96-1.956c-1.6.37-5.808.574-5.808.574l-.53 1.662s2.102-.18 3.632-.02c0 0 .496-.057.554.563.02.579-.049 1.2-.049 1.2s-.032.375-.564.47c-.577.097-4.533.25-4.533.25l-.64 2.167s-.238.5.295.358c.496-.133 4.641-.911 5.18-.8.58.145 1.22.916 1.035 1.619-.221.871-4.358 3.51-6.878 3.325 0 0-1.323.086-2.442-1.7-1.043-1.704.395-4.927.395-4.927s-.66-1.505-.182-2.015c0 0 .284-.258 1.112-.317l1.014-2.097s-1.155.08-1.842-.77c-.64-.806-.694-1.177-.203-1.4.525-.259 5.335-1.137 8.645-1.025 0 0 1.15-.113 2.148 1.882 0 0 .483.807-.338 1.001Zm-12.448 8.066c-.425.998-1.545 2.063-2.937 1.4C82.19 68.057 80 63.577 80 63.577s-.83-1.67-.99-1.627c0 0-.18-.327-.29 1.499-.115 1.817.022 5.362-.703 5.92-.687.559-1.519.336-1.95-.317-.392-.644-.555-2.174-.341-4.86.251-2.693.876-5.557 1.675-6.45.798-.885 1.439-.242 1.689-.009 0 0 1.067.968 2.827 3.808l.31.526s1.6 2.683 1.767 2.677c0 0 .13.124.247.035.168-.048.1-.909.1-.909s-.331-2.924-1.79-7.875c0 0-.221-.617-.072-1.196.148-.584.734-.31.734-.31s2.262 1.137 3.36 4.82c1.09 3.683.357 7.005-.073 8.01Zm24.339-2.205c-1.029 1.796-3.935 5.557-7.798 4.67-1.275 3.092-2.347 6.221-2.959 10.903 0 0-.135.91-.891.594-.75-.263-1.984-1.508-2.233-3.232-.27-2.264.739-6.09 2.799-10.48-.601-.976-1.01-2.371-.66-4.359 0 0 .517-3.69 4.223-7.015 0 0 .444-.384.702-.266.284.12.152 1.32-.073 1.904-.234.58-1.884 3.436-1.884 3.436s-1.029 1.93-.739 3.452c1.944-2.988 6.362-9.014 9.1-7.114.92.658 1.344 2.09 1.344 3.633 0 1.355-.326 2.795-.931 3.874Zm-.799-4.732s-.152-1.188-1.314.12c-.999 1.105-2.801 3.174-4.251 5.985 1.522-.171 2.99-.997 3.434-1.417.721-.64 2.402-2.378 2.131-4.688Zm22.076-.27h-7.078a55.779 55.779 0 0 0-.888-7.164.53.53 0 0 0-.518-.43h-1.632a.472.472 0 0 0-.368.174.477.477 0 0 0-.101.398c.463 2.336.757 4.635.902 7.023h-6.81a.575.575 0 0 0-.575.573v1.472a.578.578 0 0 0 .575.576h6.907c.005.363.008.688.008.994a51.5 51.5 0 0 1-.305 5.84.542.542 0 0 0 .136.416.536.536 0 0 0 .395.177h1.513a.574.574 0 0 0 .57-.516c.207-1.986.295-3.755.295-5.918 0-.304-.003-.63-.007-.993h6.981a.576.576 0 0 0 .575-.576v-1.472a.578.578 0 0 0-.575-.575ZM37.467 40.387a.57.57 0 0 0 .071.726c.063.062.138.11.222.139l1.269.427a.705.705 0 0 0 .814-.275A46.618 46.618 0 0 1 56.112 26.7a46.218 46.218 0 0 1 21.944-5.544c9.253 0 18.18 2.729 25.818 7.892a46.246 46.246 0 0 1 16.737 20.32.661.661 0 0 0 .613.406h1.516a.53.53 0 0 0 .489-.728c-3.606-8.878-9.705-16.447-17.638-21.884-8.122-5.566-17.643-8.51-27.535-8.51a48.666 48.666 0 0 0-40.589 21.734Z" fill="currentColor"/></svg>