<svg fill="none" xmlns="http://www.w3.org/2000/svg" viewBox="0 0 137 100"><path d="M11.617 60.822H7.27V49.983H4.308v-3.528h2.961v-2.511c0-2.976 1.31-5.11 5.646-5.11.917 0 2.357.185 2.357.185v3.276H13.76c-1.54 0-2.143.47-2.143 1.765v2.395h3.597l-.32 3.528h-3.277v10.839Zm9.976-14.65c-.063 0-.128.003-.193.005-4.031 0-5.876 3.032-5.876 7.337 0 5.423 2.393 7.593 5.908 7.593 2.01 0 3.332-.846 4.135-2.426v2.142h4.136V46.456h-4.136v2.21c-.655-1.422-2.014-2.477-3.974-2.493Zm1.052 3.396c1.693 0 2.71 1.18 2.71 3.19l.003 2.051c0 1.355-.839 2.939-2.713 2.939-2.881 0-2.804-3.111-2.804-4.148 0-3.485 1.535-4.032 2.804-4.032Zm8.728 4.073c0-1.746-.084-7.46 7.359-7.46 2.988 0 4.235.95 4.235.95l-1.003 3.11s-1.245-.685-2.869-.685c-2.08 0-3.406 1.205-3.406 3.326l.002 1.52c0 2.039 1.28 3.4 3.408 3.4 1.48 0 2.843-.693 2.843-.693l1 3.045s-1.141.956-4.19.956c-7.086 0-7.38-5.126-7.38-7.47Zm35.841-7.465c4.032 0 5.906 3.033 5.906 7.338 0 5.423-2.393 7.593-5.908 7.593-2.011 0-3.498-.846-4.3-2.426v2.142l-4.084-.001V39.27l4.335-.378v9.578c.626-1.676 2.682-2.294 4.051-2.294ZM66 49.569c-1.693 0-2.836 1.18-2.836 3.19l-.004 2.051c-.002 1.355.791 2.939 2.84 2.939 2.881 0 2.804-3.111 2.804-4.148 0-3.485-1.535-4.032-2.804-4.032Zm-15.51-3.38c-4.572 0-6.986 2.493-6.986 6.924v.823c0 5.75 3.39 7.231 7.431 7.231 3.929 0 5.707-1.099 5.707-1.099l-.811-2.926s-2.092.89-4.376.89c-2.367 0-3.386-.603-3.647-2.879h9.18v-2.347c0-4.806-2.709-6.617-6.498-6.617Zm.11 2.93c1.584 0 2.61.971 2.553 3.222h-5.337c.093-2.37 1.199-3.222 2.785-3.222Zm31.165-2.95c-4.695 0-7.167 2.647-7.167 7.39 0 6.506 4.26 7.553 7.175 7.553 4.267 0 7.105-2.297 7.105-7.495 0-5.41-3.191-7.447-7.113-7.447Zm-.059 3.411c2.065 0 2.883 1.546 2.883 3.305v1.512c0 2.13-1.144 3.364-2.89 3.364-1.633 0-2.781-1.153-2.781-3.364v-1.512c0-2.358 1.365-3.305 2.788-3.305Zm15.81-3.41c-4.697 0-7.169 2.646-7.169 7.388 0 6.507 4.262 7.554 7.176 7.554 4.266 0 7.105-2.297 7.105-7.495 0-5.41-3.192-7.447-7.113-7.447Zm-.06 3.41c2.065 0 2.883 1.546 2.883 3.305v1.512c0 2.13-1.145 3.364-2.89 3.364-1.634 0-2.781-1.153-2.781-3.364v-1.512c0-2.358 1.365-3.305 2.788-3.305Zm8.81 11.243V39.27l4.348-.378v14.445l4.314-6.883h4.592l-4.5 7.129 4.673 7.238h-4.605l-4.474-7.029v7.029h-4.348Z" fill="currentColor"/></svg>