<svg fill="none" xmlns="http://www.w3.org/2000/svg" viewBox="0 0 150 100"><path d="M66.686 50.997c0 5.465-4.275 9.491-9.522 9.491-5.246 0-9.52-4.026-9.52-9.491 0-5.503 4.274-9.491 9.52-9.491 5.247 0 9.522 3.988 9.522 9.491Zm-4.168 0c0-3.415-2.478-5.751-5.354-5.751-2.875 0-5.353 2.336-5.353 5.751 0 3.38 2.478 5.751 5.353 5.751 2.876 0 5.354-2.375 5.354-5.751ZM87.226 50.997c0 5.465-4.275 9.491-9.522 9.491-5.246 0-9.52-4.026-9.52-9.491 0-5.499 4.274-9.491 9.52-9.491 5.247 0 9.522 3.988 9.522 9.491Zm-4.168 0c0-3.415-2.478-5.751-5.354-5.751-2.875 0-5.353 2.336-5.353 5.751 0 3.38 2.478 5.751 5.353 5.751 2.876 0 5.354-2.375 5.354-5.751ZM106.91 42.08v17.039c0 7.01-4.134 9.872-9.02 9.872-4.6 0-7.37-3.077-8.413-5.593l3.628-1.51c.646 1.544 2.23 3.367 4.78 3.367 3.128 0 5.067-1.93 5.067-5.563v-1.365h-.146c-.933 1.151-2.73 2.157-4.998 2.157-4.746 0-9.093-4.134-9.093-9.453 0-5.357 4.347-9.525 9.093-9.525 2.264 0 4.061 1.005 4.998 2.122h.146v-1.545h3.958v-.004Zm-3.663 8.951c0-3.342-2.229-5.785-5.067-5.785-2.875 0-5.284 2.443-5.284 5.785 0 3.308 2.409 5.717 5.284 5.717 2.838 0 5.067-2.409 5.067-5.717ZM113.436 32.092v27.814h-4.065V32.092h4.065ZM129.277 54.12l3.236 2.158c-1.045 1.544-3.561 4.206-7.908 4.206-5.392 0-9.419-4.168-9.419-9.491 0-5.645 4.061-9.492 8.952-9.492 4.926 0 7.335 3.92 8.122 6.038l.432 1.079-12.688 5.255c.972 1.904 2.482 2.875 4.601 2.875 2.122 0 3.594-1.044 4.672-2.627Zm-9.957-3.414 8.481-3.522c-.466-1.185-1.87-2.011-3.522-2.011-2.118 0-5.066 1.87-4.959 5.533ZM32.255 48.528v-4.027h13.57c.132.702.2 1.532.2 2.43 0 3.022-.825 6.758-3.487 9.42-2.589 2.695-5.897 4.133-10.279 4.133-8.122 0-14.951-6.616-14.951-14.738 0-8.121 6.83-14.737 14.951-14.737 4.493 0 7.694 1.763 10.1 4.06l-2.842 2.842c-1.725-1.617-4.061-2.875-7.262-2.875-5.931 0-10.57 4.78-10.57 10.71 0 5.931 4.639 10.711 10.57 10.711 3.847 0 6.038-1.544 7.442-2.948 1.138-1.138 1.887-2.764 2.182-4.985l-9.624.004Z" fill="currentColor"/></svg>