<svg fill="none" xmlns="http://www.w3.org/2000/svg" viewBox="0 0 150 100"><path d="M27.758 51.596h-7.722v-1.915h9.957c-.261-.813-1.103-1.568-2.584-1.568h-7.227c-1.655 0-2.613.61-2.613 1.945v1.422c0 1.162.987 1.83 2.438 1.83h7.809v2.031H17.308c.261 1.103 1.103 1.684 2.612 1.684h7.867c1.654 0 2.467-.639 2.467-2.003v-1.423c0-1.248-.958-1.915-2.496-2.002Zm15.762-3.454h-9.521v8.912h2.7v-3.425h7.024c1.945 0 3.019-.668 3.019-2.236v-.987c-.03-1.451-1.248-2.264-3.222-2.264Zm.87 2.845c0 .639-.116.987-1.16.987h-6.532l.03-2.322h6.385c1.161 0 1.306.348 1.306.958v.377h-.028Zm11.321 2.583h-5.747l-1.423 1.51h8.302l1.423 1.974h3.193l-6.88-9.29-1.625 2.004 2.757 3.802Zm10.915-3.89h10.101c-.261-1.044-1.277-1.567-2.728-1.567H66.45c-1.306 0-2.554.523-2.554 1.945v4.993c0 1.422 1.248 1.945 2.554 1.945h7.635c1.741 0 2.35-.494 2.641-1.684H66.626v-5.631Zm21.944 2.962v-1.51h-8.156v5.922H92.46V55.37h-9.318v-2.728h5.428Zm-7.866-4.5h12.163v1.568H80.704v-1.568Zm19.652 0h-4.238l4.992 3.658a38.805 38.805 0 0 1 2.323-1.452l-3.077-2.206Zm6.153 4.558c-.725.493-1.451 1.045-2.148 1.567l3.774 2.758h4.267l-5.893-4.325Z" fill="currentColor"/><path d="M132.692 42.946C109.47 44.282 98.73 54.21 96.321 56.56l-.494.465h4.296c11.611-11.64 28.302-13.701 32.569-14.079Z" fill="currentColor"/></svg>